<?xml version="1.0" encoding="UTF-8"?>
<svg id="Camada_2" data-name="Camada 2" xmlns="http://www.w3.org/2000/svg" viewBox="0 0 254.04 228.89">
  <defs>
    <style>
      .cls-1 {
        fill: #ff9d00;
      }

      .cls-1, .cls-2, .cls-3, .cls-4 {
        stroke-width: 0px;
      }

      .cls-2 {
        fill: #aa6f21;
      }

      .cls-3 {
        fill: #fff;
      }

      .cls-4 {
        fill: #51ff10;
      }
    </style>
  </defs>
  <g id="OBJECTS">
    <path class="cls-1" d="M6.13,191.82C-.53,145.6-1.74,98.59,2.38,52.03,4.71,25.66,25.92,4.94,52.31,2.88c50.54-3.95,101.39-3.97,152.04.76,27.65,2.58,49,25.61,49.47,53.38.57,33.44.02,66.85-1.75,100.05-1.31,24.53-18.9,45.07-42.9,50.28-53.6,11.63-109.82,11.24-163.19-1.44l-36.15,22.34c-2.96,1.83-6.73-.49-6.44-3.96l2.74-32.47Z"/>
    <path class="cls-2" d="M9.82,228.25l36.15-22.34c53.37,12.68,109.59,13.07,163.19,1.44,24.01-5.21,41.59-25.76,42.9-50.28,1.77-33.2,2.32-66.61,1.75-100.05-.22-13.01-5.02-24.97-12.91-34.29C208.74,62.3,119.97,158.31,4.04,175.75c.62,5.37,1.31,10.73,2.08,16.07l-2.74,32.47c-.29,3.46,3.48,5.78,6.44,3.96Z"/>
    <path class="cls-4" d="M75.56,173.78c-1.88,0-3.76-.69-5.23-2.09-3.03-2.89-3.14-7.69-.26-10.72,9.29-9.74,17.56-19.06,25.55-28.07,8.08-9.11,16.44-18.53,25.91-28.46,2.89-3.03,7.69-3.15,10.72-.26,3.03,2.89,3.15,7.69.26,10.72-9.28,9.74-17.55,19.05-25.54,28.06-8.08,9.11-16.44,18.54-25.92,28.48-1.49,1.56-3.49,2.35-5.49,2.35Z"/>
    <path class="cls-3" d="M98.01,187.38c-1.95,0-3.9-.75-5.38-2.24-2.95-2.97-2.93-7.77.04-10.72,6.93-6.88,13.15-13.94,19.18-20.77,6.01-6.82,12.23-13.87,19.28-20.92,8.89-8.89,13.33-17.14,12.84-23.83-.33-4.5-2.95-8.51-7.99-12.25-12.86-9.53-27.83,6.7-28.6,7.57-2.42,3.24-6.98,4.02-10.34,1.72-3.46-2.36-4.35-7.08-1.99-10.54,1.44-2.11,12.52-14.1,27.01-16.55,8.2-1.38,16.14.56,22.96,5.61,10.8,8.01,13.62,17.1,14.08,23.31.84,11.39-4.96,23.39-17.24,35.67-6.71,6.71-12.76,13.58-18.62,20.22-6.19,7.02-12.58,14.28-19.87,21.51-1.48,1.47-3.41,2.2-5.34,2.2ZM107.55,103.95c-.05.07-.09.14-.14.2.06-.08.11-.15.14-.2Z"/>
    <path class="cls-3" d="M58.52,150.88c-1.84,0-3.69-.67-5.15-2.02-3.07-2.84-3.26-7.64-.42-10.71l26.52-28.67c2.84-3.07,7.64-3.26,10.71-.42,3.07,2.84,3.26,7.64.42,10.71l-26.52,28.66c-1.49,1.62-3.53,2.43-5.57,2.43Z"/>
    <path class="cls-4" d="M51.92,120.21c-1.87,0-3.74-.69-5.2-2.07-3.05-2.87-3.18-7.67-.31-10.72l28.62-30.32c5.78-6.12,11.98-11.19,18.42-15.05,8.64-5.19,17.98-8.82,27.77-10.78,4.11-.82,8.1,1.84,8.93,5.94.82,4.11-1.84,8.1-5.94,8.93-8.07,1.62-15.79,4.62-22.94,8.91-5.26,3.16-10.37,7.35-15.2,12.46l-28.62,30.31c-1.49,1.58-3.5,2.38-5.51,2.38Z"/>
    <path class="cls-4" d="M176.96,127.04c-.45,0-.91-.04-1.37-.12-4.12-.75-6.85-4.7-6.1-8.82,1.83-10.03.02-20.88-4.98-29.77-5-8.89-13.32-16.08-22.84-19.74-3.91-1.5-5.86-5.89-4.36-9.8,1.5-3.91,5.89-5.86,9.8-4.36,12.95,4.97,23.83,14.37,30.62,26.46,6.8,12.1,9.17,26.27,6.68,39.92-.67,3.66-3.86,6.22-7.45,6.22Z"/>
    <path class="cls-4" d="M127.28,193.64c-1.94,0-3.88-.74-5.36-2.22-2.96-2.96-2.96-7.76,0-10.72,14.78-14.78,26.32-26.61,40.17-44.32,2.58-3.3,7.34-3.88,10.64-1.3,3.3,2.58,3.88,7.35,1.3,10.64-14.35,18.34-26.72,31.02-41.39,45.69-1.48,1.48-3.42,2.22-5.36,2.22Z"/>
    <path class="cls-3" d="M174.54,182.21c-1.78,0-3.57-.63-5.02-1.9-3.14-2.77-3.43-7.56-.66-10.7l11.46-12.98c16.66-18.85,22.11-44.89,14.24-67.94-.76-2.22-1.64-4.42-2.61-6.52-9.18-19.89-28.16-35.19-49.54-39.93-10.67-2.37-21.77-2.15-33,.63-14.86,3.68-28.47,11.95-39.37,23.92l-10.18,11.19c-2.82,3.09-7.62,3.32-10.71.5-3.1-2.82-3.32-7.61-.5-10.71l10.18-11.19c12.92-14.2,29.15-24.03,46.94-28.43,13.52-3.35,26.96-3.59,39.93-.71,25.91,5.75,48.91,24.29,60.02,48.38,1.18,2.57,2.26,5.25,3.19,7.96,9.63,28.2,3.03,59.96-17.22,82.89l-11.46,12.98c-1.5,1.7-3.59,2.56-5.69,2.56Z"/>
  </g>
</svg>